# xmcd
#
# Track frame offsets:
#	150
#	30593
#	69067
#	92653
#	126108
#	190384
#	231376
#	268618
#	289440
#
# Disc length: 4378 seconds
#
# Revision: 0
# Processed by: cddbd v1.5.2PL0 Copyright (c) Steve Scherf et al.
# Submitted via: audiograbber 1.83.01
#
DISCID=7f111809
DTITLE=Grateful Dead - 92-05-25 Shoreline Amphitheatre, Mountain View CA
DYEAR=1900
DGENRE=
TTITLE0=Victim Or The Crime
TTITLE1=Iko Iko
TTITLE2=Spoonful
TTITLE3=New Speedway Boogie
TTITLE4=Drums
TTITLE5=Space
TTITLE6=Throwing Stones
TTITLE7=Attics Of My Life
TTITLE8=Not Fade Away
EXTD=
EXTT0=
EXTT1=
EXTT2=
EXTT3=
EXTT4=
EXTT5=
EXTT6=
EXTT7=
EXTT8=
PLAYORDER=
